<svg width="24" height="24" viewBox="0 0 24 24" fill="none" xmlns="http://www.w3.org/2000/svg">
<path d="M20.6012 1.45347C16.6259 -0.264254 11.3597 -0.833464 7.67951 1.84505C3.35687 4.99186 1.99362 11.9253 6.32228 15.6817C7.5751 16.7697 9.41218 14.9389 8.14931 13.8449C4.81247 10.9484 6.21386 5.54492 9.82778 3.54057C11.7231 2.48895 14.044 2.45463 16.13 2.82805C16.9472 2.97338 17.7543 3.18128 18.5413 3.43965C18.7401 3.50424 19.8564 3.94225 19.2942 3.70003C20.8101 4.34998 22.1271 2.11351 20.6012 1.45347Z" fill="url(#paint0_linear_489_4295)"/>
<path d="M22.8017 20.1465C24.4019 16.1762 24.6629 10.8696 21.9424 7.34936C18.7099 3.16708 11.8616 1.9782 8.25771 6.35829C7.20566 7.63801 9.02266 9.48491 10.0847 8.19511C12.9377 4.72737 18.4168 6.07974 20.4547 9.7675C22.0307 12.6196 21.4866 16.5354 20.3101 19.4542C19.6857 21.0064 22.1853 21.6785 22.8017 20.1465Z" fill="url(#paint1_linear_489_4295)"/>
<path d="M1.19842 3.85354C-0.40174 7.82388 -0.662745 13.1304 2.05773 16.6507C5.29017 20.833 12.1385 22.0218 15.7424 17.6417C16.7945 16.362 14.9775 14.5151 13.9154 15.8049C11.0624 19.2727 5.5833 17.9203 3.54545 14.2325C1.96939 11.3804 2.51348 7.46459 3.69001 4.54587C4.31441 2.99569 1.81479 2.32151 1.19842 3.85354Z" fill="url(#paint2_linear_489_4295)"/>
<path d="M3.39911 22.5464C7.37441 24.2641 12.6407 24.8333 16.3209 22.1548C20.6435 19.008 22.0067 12.0746 17.6781 8.31817C16.4253 7.23022 14.5882 9.06097 15.851 10.155C19.1879 13.0515 17.7865 18.455 14.1726 20.4593C12.2773 21.5109 9.95635 21.5452 7.87032 21.1718C7.05318 21.0265 6.24607 20.8186 5.45904 20.5602C5.26027 20.4956 4.14398 20.0576 4.70614 20.2998C3.19231 19.6499 1.87324 21.8864 3.39911 22.5464Z" fill="url(#paint3_linear_489_4295)"/>
<defs>
<linearGradient id="paint0_linear_489_4295" x1="3.67773" y1="7.96068" x2="21.2796" y2="7.96068" gradientUnits="userSpaceOnUse">
<stop stop-color="#5B88F7"/>
<stop offset="1" stop-color="#5C23FF"/>
</linearGradient>
<linearGradient id="paint1_linear_489_4295" x1="7.94092" y1="12.2508" x2="24.0001" y2="12.2508" gradientUnits="userSpaceOnUse">
<stop stop-color="#5B88F7"/>
<stop offset="1" stop-color="#5C23FF"/>
</linearGradient>
<linearGradient id="paint2_linear_489_4295" x1="-2.80844e-07" y1="11.6477" x2="16.0592" y2="11.6477" gradientUnits="userSpaceOnUse">
<stop stop-color="#5B88F7"/>
<stop offset="1" stop-color="#5C23FF"/>
</linearGradient>
<linearGradient id="paint3_linear_489_4295" x1="2.72119" y1="15.9455" x2="20.3226" y2="15.9455" gradientUnits="userSpaceOnUse">
<stop stop-color="#5B88F7"/>
<stop offset="1" stop-color="#5C23FF"/>
</linearGradient>
</defs>
</svg>
